<svg xmlns="http://www.w3.org/2000/svg" viewBox="0 0 24 24" width="24" height="24" shape-rendering="crispEdges" role="img" aria-label="여행"><title>여행 / travel</title><g fill="#0B1B33"><rect x="9" y="4" width="6" height="1"/><rect x="8" y="5" width="1" height="4"/><rect x="15" y="5" width="1" height="4"/><rect x="6" y="7" width="2" height="2"/><rect x="9" y="7" width="6" height="2"/><rect x="16" y="7" width="2" height="2"/><rect x="18" y="8" width="1" height="12"/><rect x="4" y="9" width="2" height="10"/><rect x="19" y="9" width="1" height="10"/><rect x="7" y="13" width="1" height="2"/><rect x="7" y="16" width="1" height="1"/><rect x="16" y="18" width="2" height="2"/><rect x="6" y="19" width="10" height="1"/></g><g fill="#5EE2CD"><rect x="7" y="9" width="1" height="1"/><rect x="16" y="9" width="1" height="1"/><rect x="6" y="12" width="1" height="6"/><rect x="8" y="12" width="3" height="1"/><rect x="12" y="12" width="4" height="1"/><rect x="17" y="12" width="1" height="3"/><rect x="8" y="13" width="2" height="5"/><rect x="13" y="13" width="1" height="5"/><rect x="15" y="13" width="1" height="5"/><rect x="10" y="14" width="1" height="4"/><rect x="14" y="14" width="1" height="4"/><rect x="11" y="15" width="2" height="3"/></g><g fill="#13A5D5"><rect x="7" y="10" width="1" height="3"/><rect x="16" y="10" width="1" height="3"/><rect x="16" y="15" width="2" height="3"/><rect x="7" y="17" width="1" height="1"/></g><g fill="#EBF27B"><rect x="10" y="9" width="5" height="3"/><rect x="17" y="9" width="1" height="2"/><rect x="6" y="10" width="1" height="2"/><rect x="9" y="10" width="1" height="2"/><rect x="15" y="10" width="1" height="1"/></g><g fill="#F8FBF8"><rect x="10" y="5" width="4" height="2"/><rect x="9" y="6" width="1" height="1"/><rect x="14" y="6" width="1" height="1"/><rect x="6" y="9" width="1" height="1"/><rect x="8" y="9" width="1" height="1"/><rect x="11" y="13" width="2" height="2"/></g><g fill="#9AC0B3"><rect x="14" y="5" width="1" height="1"/><rect x="8" y="11" width="1" height="1"/><rect x="15" y="11" width="1" height="1"/><rect x="17" y="11" width="1" height="1"/></g><g fill="#106487"><rect x="16" y="13" width="1" height="2"/><rect x="7" y="15" width="1" height="1"/><rect x="6" y="18" width="10" height="1"/></g><g fill="#DCF3D4"><rect x="9" y="9" width="1" height="1"/><rect x="15" y="9" width="1" height="1"/><rect x="8" y="10" width="1" height="1"/><rect x="11" y="12" width="1" height="1"/><rect x="10" y="13" width="1" height="1"/><rect x="14" y="13" width="1" height="1"/></g><g fill="#575F5D"><rect x="9" y="5" width="1" height="1"/><rect x="7" y="6" width="1" height="1"/><rect x="18" y="7" width="1" height="1"/><rect x="4" y="8" width="2" height="1"/><rect x="19" y="8" width="1" height="1"/><rect x="5" y="19" width="1" height="1"/></g></svg>