<svg xmlns="http://www.w3.org/2000/svg" viewBox="0 0 24 24" width="24" height="24" shape-rendering="crispEdges" role="img" aria-label="기차"><title>기차 / train</title><g fill="#0B1B33"><rect x="8" y="3" width="7" height="1"/><rect x="7" y="4" width="2" height="1"/><rect x="14" y="4" width="2" height="3"/><rect x="6" y="5" width="2" height="1"/><rect x="16" y="5" width="1" height="12"/><rect x="7" y="6" width="7" height="1"/><rect x="5" y="7" width="1" height="8"/><rect x="17" y="7" width="1" height="8"/><rect x="8" y="9" width="1" height="2"/><rect x="10" y="12" width="3" height="1"/><rect x="6" y="15" width="3" height="1"/><rect x="15" y="15" width="1" height="2"/><rect x="6" y="16" width="2" height="1"/><rect x="8" y="17" width="7" height="1"/><rect x="7" y="18" width="2" height="2"/><rect x="14" y="18" width="1" height="2"/><rect x="6" y="19" width="1" height="1"/><rect x="9" y="19" width="1" height="1"/><rect x="13" y="19" width="1" height="1"/><rect x="15" y="19" width="2" height="1"/></g><g fill="#1292E7"><rect x="13" y="4" width="1" height="1"/><rect x="8" y="8" width="1" height="1"/><rect x="14" y="8" width="2" height="1"/><rect x="11" y="9" width="1" height="2"/><rect x="15" y="9" width="1" height="6"/><rect x="8" y="11" width="1" height="4"/><rect x="14" y="11" width="1" height="4"/><rect x="9" y="12" width="1" height="4"/><rect x="13" y="12" width="1" height="5"/><rect x="10" y="13" width="3" height="3"/><rect x="8" y="16" width="1" height="1"/></g><g fill="#34C2F3"><rect x="9" y="4" width="1" height="1"/><rect x="13" y="5" width="1" height="1"/><rect x="14" y="7" width="2" height="1"/><rect x="7" y="8" width="1" height="7"/><rect x="9" y="8" width="1" height="1"/><rect x="13" y="8" width="1" height="1"/><rect x="9" y="16" width="4" height="1"/></g><g fill="#F0EF67"><rect x="9" y="9" width="1" height="2"/><rect x="13" y="9" width="1" height="2"/><rect x="10" y="11" width="3" height="1"/></g><g fill="#85E3F0"><rect x="10" y="4" width="3" height="1"/><rect x="8" y="5" width="1" height="1"/><rect x="8" y="7" width="6" height="1"/><rect x="10" y="10" width="1" height="1"/></g><g fill="#156699"><rect x="6" y="7" width="1" height="8"/><rect x="14" y="9" width="1" height="2"/><rect x="13" y="11" width="1" height="1"/><rect x="14" y="15" width="1" height="2"/></g><g fill="#C6F5F8"><rect x="9" y="5" width="4" height="1"/><rect x="7" y="7" width="1" height="1"/><rect x="15" y="17" width="1" height="1"/></g><g fill="#E4E999"><rect x="10" y="8" width="3" height="1"/><rect x="10" y="9" width="1" height="1"/><rect x="12" y="9" width="1" height="2"/><rect x="6" y="18" width="1" height="1"/><rect x="9" y="18" width="4" height="1"/></g><g fill="#6C6A59"><rect x="6" y="4" width="1" height="1"/><rect x="6" y="6" width="1" height="1"/><rect x="9" y="11" width="1" height="1"/><rect x="7" y="17" width="1" height="1"/><rect x="13" y="18" width="1" height="1"/><rect x="15" y="18" width="1" height="1"/></g></svg>