<svg xmlns="http://www.w3.org/2000/svg" viewBox="0 0 24 24" width="24" height="24" shape-rendering="crispEdges" role="img" aria-label="산"><title>산 / mountain</title><g fill="#0B1B33"><rect x="9" y="5" width="2" height="1"/><rect x="12" y="6" width="1" height="1"/><rect x="7" y="8" width="1" height="1"/><rect x="13" y="8" width="1" height="2"/><rect x="6" y="9" width="1" height="2"/><rect x="15" y="9" width="2" height="1"/><rect x="14" y="10" width="1" height="1"/><rect x="17" y="10" width="1" height="3"/><rect x="5" y="11" width="1" height="2"/><rect x="13" y="11" width="1" height="1"/><rect x="18" y="11" width="1" height="3"/><rect x="19" y="13" width="1" height="2"/><rect x="3" y="14" width="1" height="1"/><rect x="14" y="14" width="1" height="1"/><rect x="2" y="15" width="1" height="3"/><rect x="20" y="16" width="1" height="2"/><rect x="3" y="17" width="1" height="2"/><rect x="19" y="17" width="1" height="2"/><rect x="4" y="18" width="15" height="1"/></g><g fill="#0C9D62"><rect x="8" y="11" width="1" height="1"/><rect x="11" y="11" width="2" height="2"/><rect x="10" y="12" width="1" height="1"/><rect x="13" y="12" width="2" height="1"/><rect x="16" y="12" width="1" height="6"/><rect x="14" y="13" width="2" height="1"/><rect x="17" y="13" width="1" height="5"/><rect x="13" y="14" width="1" height="4"/><rect x="15" y="14" width="1" height="4"/><rect x="18" y="14" width="1" height="4"/><rect x="14" y="15" width="1" height="3"/><rect x="8" y="16" width="1" height="2"/><rect x="12" y="16" width="1" height="2"/><rect x="19" y="16" width="1" height="1"/><rect x="6" y="17" width="2" height="1"/><rect x="11" y="17" width="1" height="1"/></g><g fill="#68C842"><rect x="7" y="12" width="1" height="4"/><rect x="5" y="13" width="2" height="4"/><rect x="8" y="13" width="1" height="2"/><rect x="4" y="15" width="1" height="3"/><rect x="3" y="16" width="1" height="1"/><rect x="5" y="17" width="1" height="1"/></g><g fill="#3CB363"><rect x="7" y="11" width="1" height="1"/><rect x="8" y="12" width="2" height="1"/><rect x="9" y="13" width="5" height="1"/><rect x="9" y="14" width="4" height="2"/><rect x="8" y="15" width="1" height="1"/><rect x="7" y="16" width="1" height="1"/><rect x="9" y="16" width="3" height="1"/><rect x="9" y="17" width="2" height="1"/></g><g fill="#C3C5C4"><rect x="11" y="8" width="1" height="3"/><rect x="12" y="9" width="1" height="1"/><rect x="7" y="10" width="1" height="1"/><rect x="10" y="10" width="1" height="2"/><rect x="9" y="11" width="1" height="1"/><rect x="16" y="11" width="1" height="1"/><rect x="15" y="12" width="1" height="1"/></g><g fill="#DFE0DE"><rect x="10" y="6" width="1" height="1"/><rect x="10" y="8" width="1" height="2"/><rect x="7" y="9" width="1" height="1"/><rect x="8" y="10" width="2" height="1"/><rect x="14" y="11" width="2" height="1"/><rect x="6" y="12" width="1" height="1"/></g><g fill="#F5F5F5"><rect x="9" y="7" width="2" height="1"/><rect x="9" y="8" width="1" height="2"/><rect x="8" y="9" width="1" height="1"/><rect x="15" y="10" width="1" height="1"/></g><g fill="#899D97"><rect x="8" y="7" width="1" height="2"/><rect x="11" y="7" width="1" height="1"/><rect x="12" y="8" width="1" height="1"/><rect x="12" y="10" width="2" height="1"/><rect x="16" y="10" width="1" height="1"/><rect x="6" y="11" width="1" height="1"/></g><g fill="#47585D"><rect x="8" y="6" width="2" height="1"/><rect x="11" y="6" width="1" height="1"/><rect x="12" y="7" width="1" height="1"/><rect x="4" y="12" width="1" height="3"/><rect x="3" y="13" width="1" height="1"/><rect x="3" y="15" width="1" height="1"/><rect x="19" y="15" width="2" height="1"/></g></svg>